<?xml version="1.0"?>
<svg xmlns="http://www.w3.org/2000/svg" xmlns:xlink="http://www.w3.org/1999/xlink" xmlns:svgjs="http://svgjs.com/svgjs" version="1.1" width="512" height="512" x="0" y="0" viewBox="0 0 512 512" style="enable-background:new 0 0 512 512" xml:space="preserve" class=""><g>
<path xmlns="http://www.w3.org/2000/svg" style="" d="M391.802,497.93c-8.801-43.054-42.532-76.426-85.932-85.016v-25.893  c40.512-14.163,80.793-55.21,80.793-103.65l-0.075-64.932c-5.338,0.741-10.795,1.134-16.343,1.134  c-26.245,0-50.452-8.578-69.893-23.033c0.004-0.005,0.008-0.011,0.013-0.018c-21.123,28.278-55.161,46.636-93.563,46.636  c-18.788,0-36.53-4.4-52.229-12.198v52.41c0,48.924,38.922,90.315,80.791,104.073v25.47c-43.399,8.59-77.129,41.961-85.932,85.016  c-0.312,1.529,0.078,3.116,1.065,4.324c0.985,1.209,2.462,1.909,4.022,1.909h232.2c1.559,0,3.035-0.7,4.022-1.909  C391.724,501.047,392.115,499.459,391.802,497.93z" fill="#e8caaf" data-original="#e8caaf" class=""/>
<g xmlns="http://www.w3.org/2000/svg" style="opacity:0.1;">
	<path d="M230.128,374.372c-33.616-21.681-53.686-55.7-53.686-91.001v-40.219c0-2.303-1.509-4.334-3.714-5.001   c-3.691-1.115-7.369-2.428-10.934-3.905c-0.643-0.266-1.322-0.398-1.999-0.398c-1.019,0-2.031,0.298-2.903,0.881   c-1.451,0.97-2.322,2.599-2.322,4.344v44.299c0,23.039,8.539,45.593,24.695,65.225c12.466,15.146,28.348,27.232,45.931,34.951   c0.681,0.299,1.394,0.442,2.097,0.442c1.869,0,3.667-1.008,4.604-2.752C233.188,378.838,232.418,375.849,230.128,374.372z" fill="#000000" data-original="#000000" style="" class=""/>
	<path d="M253.808,386.253c-3.645-1.336-7.321-2.908-10.925-4.672c-0.726-0.355-1.511-0.531-2.295-0.531   c-0.963,0-1.924,0.266-2.767,0.793c-1.529,0.954-2.458,2.63-2.458,4.431v25.753c0,1.691,0.818,3.278,2.196,4.258   c0.897,0.636,1.957,0.967,3.028,0.967c0.576,0,1.156-0.095,1.715-0.289c3.558-1.237,7.23-2.305,10.91-3.176   c2.356-0.557,4.022-2.661,4.022-5.083v-17.545C257.234,388.966,255.866,387.007,253.808,386.253z" fill="#000000" data-original="#000000" style="" class=""/>
</g>
<path xmlns="http://www.w3.org/2000/svg" style="" d="M270.616,485.263c-16.724-11.196-38.491-17.965-62.293-17.965c-19.872,0-38.325,4.72-53.61,12.793  c-2.237,5.722-4.024,11.678-5.284,17.84c-0.312,1.529,0.078,3.116,1.065,4.324c0.985,1.209,2.462,1.909,4.022,1.909h232.2  c1.559,0,3.035-0.7,4.022-1.909c0.985-1.207,1.376-2.795,1.065-4.324c-1.26-6.162-3.047-12.119-5.284-17.84  c-15.285-8.074-33.738-12.793-53.61-12.793C309.107,467.298,287.341,474.067,270.616,485.263z" fill="#b32828" data-original="#bf6060" class=""/>
<g xmlns="http://www.w3.org/2000/svg">
	<ellipse style="" cx="270.941" cy="445.085" rx="13.348" ry="13.357" fill="#295c06" data-original="#3f728e" class=""/>
	<path style="" d="M426.388,377.017l-20.334-20.197c-2.039-2.025-5.376-2.025-7.415,0l-20.333,20.197   c-2.039,2.025-2.039,5.338,0,7.363l20.333,20.195c2.039,2.025,5.376,2.025,7.415,0l20.334-20.195   C428.428,382.356,428.428,379.042,426.388,377.017z" fill="#295c06" data-original="#3f728e" class=""/>
	<path style="" d="M142.17,356.82c-2.039-2.025-5.375-2.025-7.414,0l-20.334,20.197   c-2.039,2.025-2.039,5.338,0.001,7.363l20.333,20.195c2.039,2.025,5.376,2.025,7.415,0l20.335-20.195   c2.039-2.025,2.04-5.338,0-7.363L142.17,356.82z" fill="#295c06" data-original="#3f728e" class=""/>
</g>
<path xmlns="http://www.w3.org/2000/svg" style="" d="M154.571,283.371v-52.41c0.064,0.031,0.127,0.061,0.191,0.092c-0.087-0.043-0.177-0.084-0.263-0.126  v-25.334c-0.463-0.02-0.929-0.032-1.397-0.032c-18.389,0-33.296,14.806-33.296,33.07v27.234c0,18.264,14.907,33.07,33.296,33.07  c0.935,0,1.86-0.045,2.775-0.12C155.027,293.769,154.571,288.614,154.571,283.371z" fill="#e3dab3" data-original="#e3dab3"/>
<path xmlns="http://www.w3.org/2000/svg" style="" d="M155.377,295.488c-10.962-5.41-18.497-16.64-18.497-29.624V238.63  c0-12.632,7.136-23.601,17.618-29.168v-3.855c-0.465-0.02-0.928-0.046-1.397-0.046c-18.389,0-33.296,14.806-33.296,33.07v27.234  c0,18.264,14.907,33.07,33.296,33.07c0.936,0,1.858-0.053,2.773-0.13C155.69,297.704,155.524,296.598,155.377,295.488z" fill="#000000" data-original="#000000" class=""/>
<path xmlns="http://www.w3.org/2000/svg" style="" d="M388.129,205.56c-0.517,0-1.031,0.013-1.542,0.036v0.005c0.045,1.279,0.075,2.56,0.075,3.849v73.921  c0,5.242-0.482,10.394-1.374,15.437c0.938,0.079,1.884,0.125,2.842,0.125c18.388,0,33.296-14.806,33.296-33.07V238.63  C421.425,220.367,406.518,205.56,388.129,205.56z" fill="#e3dab3" data-original="#e3dab3"/>
<path xmlns="http://www.w3.org/2000/svg" style="" d="M289.337,7.837H251.75c-26.691,0-48.325,21.489-48.325,47.998c0,12.469,4.799,23.813,12.648,32.345  c16.243-8.513,34.783-13.344,54.471-13.344c18.818,0,36.586,4.413,52.303,12.233v3.328c9.127-8.73,14.818-20.982,14.818-34.561  C337.663,29.326,316.025,7.837,289.337,7.837z" fill="#ff8502" data-original="#a87b2c" class=""/>
<path xmlns="http://www.w3.org/2000/svg" style="" d="M257.426,348.476c-12.639,0-22.922-10.277-22.922-22.91v-6.546c0-2.26,1.833-4.091,4.093-4.091  h62.215c2.26,0,4.092,1.831,4.092,4.091v6.546c0,12.634-10.282,22.91-22.921,22.91H257.426z" fill="#ffffff" data-original="#ffffff" class=""/>
<g xmlns="http://www.w3.org/2000/svg">
	<path style="" d="M83.07,351.699c2.704-9.771,4.431-11.496,14.229-14.193c1.234-0.342,2.086-1.46,2.086-2.736   c0-1.277-0.852-2.395-2.086-2.735c-9.798-2.698-11.525-4.422-14.229-14.194c-0.341-1.233-1.463-2.082-2.744-2.082   c-1.282,0-2.402,0.851-2.743,2.082c-2.704,9.772-4.435,11.496-14.229,14.194c-1.234,0.34-2.091,1.459-2.091,2.735   c0,1.276,0.857,2.394,2.091,2.736c9.795,2.697,11.525,4.422,14.229,14.193c0.341,1.232,1.461,2.083,2.743,2.083   C81.608,353.783,82.73,352.931,83.07,351.699z" fill="#ffc753" data-original="#ffc753"/>
	<path style="" d="M120.712,437.031c-11.164-3.073-13.13-5.036-16.212-16.169c-0.389-1.403-1.667-2.372-3.124-2.372   c-1.462,0-2.738,0.97-3.126,2.372c-3.08,11.131-5.051,13.096-16.208,16.169c-1.406,0.387-2.381,1.662-2.381,3.116   c0,1.453,0.976,2.727,2.381,3.116c11.158,3.072,13.128,5.036,16.208,16.17c0.389,1.401,1.665,2.373,3.126,2.373   c1.458,0,2.736-0.973,3.124-2.373c3.08-11.132,5.048-13.097,16.212-16.17c1.404-0.389,2.375-1.662,2.375-3.116   C123.087,438.693,122.116,437.417,120.712,437.031z" fill="#ffc753" data-original="#ffc753"/>
	<path style="" d="M448.277,444.103c-11.553-3.181-13.591-5.212-16.778-16.736c-0.403-1.451-1.726-2.454-3.234-2.454   c-1.513,0-2.834,1.003-3.237,2.454c-3.189,11.523-5.227,13.555-16.776,16.736c-1.456,0.401-2.465,1.72-2.465,3.226   c0,1.505,1.01,2.822,2.465,3.226c11.549,3.18,13.587,5.213,16.776,16.734c0.403,1.451,1.723,2.457,3.237,2.457   c1.507,0,2.831-1.005,3.234-2.457c3.187-11.52,5.224-13.554,16.778-16.734c1.453-0.403,2.459-1.72,2.459-3.226   C450.734,445.821,449.729,444.503,448.277,444.103z" fill="#ffc753" data-original="#ffc753"/>
</g>
<path xmlns="http://www.w3.org/2000/svg" style="" d="M322.846,87.069v41.909c0,25.283-8.358,48.643-22.495,67.562  c19.44,14.455,43.647,23.033,69.893,23.033c5.548,0,11.004-0.393,16.343-1.134v-29.423  C386.587,144.472,360.66,105.889,322.846,87.069z" fill="#d98922" data-original="#bf953e" class=""/>
<path xmlns="http://www.w3.org/2000/svg" style="" d="M270.543,74.836c-64.089,0-116.044,51.122-116.044,114.18v41.91  c15.717,7.82,33.485,12.233,52.301,12.233c64.091,0,116.045-51.121,116.045-114.18v-41.91  C307.129,79.248,289.36,74.836,270.543,74.836z" fill="#ffb31a" data-original="#efba50" class=""/>
<g xmlns="http://www.w3.org/2000/svg">
	<path style="" d="M412.29,338.109l-6.235-6.194c-2.039-2.025-5.376-2.025-7.415,0l-6.237,6.194   c-2.039,2.025-2.039,5.338,0,7.363l6.237,6.194c2.039,2.025,5.376,2.025,7.415,0l6.235-6.194   C414.328,343.448,414.328,340.134,412.29,338.109z" fill="#b32828" data-original="#bf6060" class=""/>
	<path style="" d="M142.17,331.915c-2.039-2.025-5.375-2.025-7.415,0l-6.236,6.194c-2.039,2.025-2.039,5.338,0,7.363   l6.236,6.194c2.039,2.025,5.376,2.025,7.415,0l6.237-6.194c2.039-2.025,2.039-5.338,0-7.363L142.17,331.915z" fill="#b32828" data-original="#bf6060" class=""/>
</g>
<path xmlns="http://www.w3.org/2000/svg" style="" d="M175.518,497.936c0.001-0.411,0.045-0.827,0.129-1.236  c6.956-34.023,26.747-63.311,55.729-82.47c0.278-0.184,0.525-0.398,0.764-0.616c-41.838,9.571-74.125,42.335-82.709,84.316  c-0.05,0.243-0.075,0.49-0.09,0.735c0.141,1.159,0.604,2.271,1.358,3.196c1.188,1.456,2.969,2.302,4.848,2.302h13.714  C172.706,504.163,175.502,501.38,175.518,497.936z" fill="#000000" data-original="#000000" class=""/>
<path xmlns="http://www.w3.org/2000/svg" d="M80.327,361.619c4.787,0,9.021-3.22,10.296-7.829c0.687-2.484,1.585-5.443,2.437-6.291c0.855-0.853,3.826-1.75,6.333-2.44  c4.61-1.278,7.83-5.508,7.83-10.288c0-4.787-3.225-9.019-7.842-10.29c-2.494-0.687-5.466-1.585-6.321-2.438  c-0.852-0.849-1.749-3.809-2.436-6.29c-1.275-4.61-5.51-7.83-10.297-7.83s-9.022,3.22-10.295,7.828  c-0.688,2.483-1.586,5.442-2.438,6.292c-0.855,0.853-3.826,1.751-6.321,2.438c-4.619,1.273-7.846,5.505-7.846,10.29  c0,4.779,3.221,9.01,7.847,10.291c2.493,0.686,5.464,1.585,6.32,2.438c0.852,0.849,1.75,3.809,2.438,6.29  C71.307,358.399,75.54,361.619,80.327,361.619z M80.327,331.173c1.026,1.395,2.202,2.572,3.597,3.597  c-1.394,1.025-2.57,2.202-3.595,3.597c-1.025-1.395-2.203-2.573-3.595-3.598C78.125,333.744,79.3,332.567,80.327,331.173z" fill="#000000" data-original="#000000" style="" class=""/>
<path xmlns="http://www.w3.org/2000/svg" d="M122.792,429.475c-8.418-2.317-8.418-2.317-10.738-10.705c-1.324-4.778-5.715-8.117-10.676-8.117  c-4.963,0-9.355,3.337-10.68,8.119c-2.321,8.385-2.321,8.385-10.733,10.702c-4.793,1.319-8.141,5.707-8.141,10.673  c0,4.958,3.344,9.346,8.138,10.672c8.416,2.318,8.416,2.318,10.737,10.71c1.326,4.777,5.717,8.115,10.678,8.115  c4.96,0,9.35-3.336,10.677-8.12c2.321-8.386,2.321-8.386,10.75-10.706c4.781-1.325,8.121-5.711,8.121-10.669  C130.925,435.182,127.581,430.794,122.792,429.475z M101.375,446.156c-1.575-2.524-3.485-4.435-6.007-6.009  c2.523-1.576,4.432-3.486,6.008-6.009c1.575,2.523,3.485,4.435,6.007,6.009C104.861,441.721,102.951,443.632,101.375,446.156z" fill="#000000" data-original="#000000" style="" class=""/>
<path xmlns="http://www.w3.org/2000/svg" d="M450.357,436.546c-8.863-2.44-8.863-2.44-11.307-11.278c-1.34-4.823-5.775-8.193-10.784-8.193  c-5.011,0-9.448,3.37-10.79,8.201c-2.443,8.829-2.443,8.829-11.304,11.27c-4.84,1.333-8.22,5.768-8.22,10.78  c0,5.007,3.377,9.439,8.221,10.78c8.86,2.44,8.86,2.44,11.305,11.276c1.341,4.825,5.776,8.196,10.788,8.196  c5.009,0,9.444-3.371,10.786-8.203c2.442-8.828,2.442-8.828,11.319-11.271c4.827-1.34,8.2-5.771,8.2-10.777  C458.571,442.315,455.195,437.881,450.357,436.546z M428.263,454.087c-1.733-2.897-3.862-5.027-6.758-6.76  c2.898-1.732,5.025-3.862,6.758-6.759c1.733,2.898,3.861,5.027,6.759,6.76C432.125,449.061,429.996,451.19,428.263,454.087z" fill="#000000" data-original="#000000" style="" class=""/>
<path xmlns="http://www.w3.org/2000/svg" d="M304.728,128.979v-24.365c0-4.329-3.508-7.837-7.837-7.837c-4.329,0-7.837,3.508-7.837,7.837v24.365  c0,44.322-36.9,80.382-82.253,80.382c-8.269,0-16.377-1.172-24.097-3.486c-4.145-1.241-8.514,1.112-9.756,5.258  c-1.241,4.146,1.112,8.514,5.258,9.756c9.18,2.75,18.801,4.145,28.596,4.145C260.798,225.033,304.728,181.944,304.728,128.979z" fill="#000000" data-original="#000000" style="" class=""/>
<path xmlns="http://www.w3.org/2000/svg" d="M206.349,199.072l0.452,0.001c39.686,0,71.972-31.444,71.972-70.094v-2.218c0-4.304-3.471-7.803-7.775-7.837l-0.455-0.001  c-4.329,0-7.837,3.508-7.837,7.837c0,0.857,0.138,1.682,0.392,2.456c-0.132,29.9-25.336,54.184-56.297,54.184l-0.329-0.001  c-4.344,0.013-7.864,3.447-7.898,7.775C198.539,195.501,202.021,199.036,206.349,199.072z" fill="#000000" data-original="#000000" style="" class=""/>
<path xmlns="http://www.w3.org/2000/svg" d="M251.75,46.119c-4.328,0-7.837,3.508-7.837,7.837s3.509,7.837,7.837,7.837h37.587c4.329,0,7.837-3.508,7.837-7.837  s-3.508-7.837-7.837-7.837H251.75z" fill="#000000" data-original="#000000" style="" class=""/>
<path xmlns="http://www.w3.org/2000/svg" d="M228.469,272.286c0-4.329-3.509-7.837-7.837-7.837c-4.328,0-7.837,3.508-7.837,7.837v14.016  c0,4.329,3.509,7.837,7.837,7.837c4.328,0,7.837-3.508,7.837-7.837V272.286z" fill="#000000" data-original="#000000" style="" class=""/>
<path xmlns="http://www.w3.org/2000/svg" d="M319.203,294.139c4.329,0,7.837-3.508,7.837-7.837v-14.016c0-4.329-3.508-7.837-7.837-7.837  c-4.329,0-7.837,3.508-7.837,7.837v14.016C311.366,290.631,314.875,294.139,319.203,294.139z" fill="#000000" data-original="#000000" style="" class=""/>
<path xmlns="http://www.w3.org/2000/svg" d="M312.742,325.565v-6.546c0-6.577-5.351-11.928-11.929-11.928h-62.215c-6.578,0-11.93,5.351-11.93,11.928v6.546  c0,16.955,13.799,30.747,30.759,30.747h24.558C298.944,356.312,312.742,342.52,312.742,325.565z M242.341,325.565v-2.8h54.728v2.8  c0,8.311-6.767,15.074-15.084,15.074h-24.558C249.109,340.639,242.341,333.876,242.341,325.565z" fill="#000000" data-original="#000000" style="" class=""/>
<path xmlns="http://www.w3.org/2000/svg" d="M363.666,433.462c-3.206-2.907-8.162-2.667-11.071,0.538c-2.908,3.206-2.668,8.162,0.538,11.071  c6.529,5.924,12.173,12.577,16.869,19.816c-11.745-3.576-24.282-5.425-37.093-5.425c-22.53,0-44.438,5.842-62.293,16.529  c-17.854-10.687-39.764-16.529-62.293-16.529c-12.797,0-25.323,1.846-37.057,5.416c13.419-20.691,34.224-36.086,58.898-42.702  l21.035,15.294c-0.915,2.368-1.438,4.929-1.438,7.615c0,11.687,9.503,21.195,21.184,21.195s21.183-9.509,21.183-21.195  c0-2.686-0.522-5.249-1.438-7.614l20.855-15.162c8.095,2.211,15.862,5.38,23.158,9.482c3.77,2.118,8.549,0.782,10.672-2.992  c2.12-3.772,0.782-8.55-2.992-10.672c-9.011-5.066-18.633-8.912-28.677-11.472v-14.174c16.92-6.795,33.278-17.794,46.928-31.828  c15.634-16.073,26.235-34.704,31-54.041c0.971-0.082,1.927-0.208,2.877-0.356v18.915c-0.485,0.364-7.629,7.377-7.629,7.377  c-2.48,2.462-3.844,5.744-3.844,9.243s1.365,6.78,3.843,9.242l3.234,3.211l-17.329,17.213c-2.48,2.463-3.844,5.744-3.844,9.243  s1.365,6.78,3.843,9.242l20.334,20.196c2.463,2.446,5.741,3.794,9.229,3.794s6.766-1.348,9.23-3.795l20.333-20.194  c2.48-2.462,3.845-5.744,3.845-9.243s-1.366-6.78-3.844-9.242l-17.331-17.215l3.231-3.209c2.48-2.462,3.845-5.744,3.845-9.243  s-1.366-6.78-3.843-9.241c0,0-7.144-7.015-7.629-7.379V300.36c11.457-7.265,19.078-20.007,19.078-34.495v-27.234  c0-20.426-15.132-37.401-34.832-40.426l-0.007-9.188c0-19.209-4.405-37.595-13.093-54.651c-1.963-3.857-6.682-5.39-10.54-3.425  c-3.856,1.964-5.391,6.683-3.425,10.54c7.554,14.83,11.385,30.824,11.385,47.537v22.39c-2.842,0.22-5.685,0.33-8.507,0.33  c-21.752,0-42.014-6.354-58.996-17.254c1.865-2.877,3.627-5.825,5.249-8.859c12.923,8.359,27.734,13.656,43.323,15.284  c0.277,0.028,0.551,0.043,0.822,0.043c3.962,0,7.365-2.996,7.786-7.025c0.449-4.304-2.676-8.159-6.982-8.608  c-13.911-1.451-27.08-6.375-38.395-14.161c4.934-13.151,7.633-27.36,7.633-42.178v-28.385c9.342,6.137,17.624,13.639,24.697,22.405  c1.547,1.918,3.816,2.915,6.104,2.915c1.727,0,3.466-0.568,4.916-1.738c3.369-2.718,3.895-7.652,1.178-11.021  c-8.756-10.852-19.124-20.016-30.899-27.335c5.694-8.877,8.821-19.255,8.821-29.986C345.5,25.047,320.306,0,289.337,0H251.75  c-7.088,0-14.001,1.298-20.548,3.858c-4.03,1.577-6.021,6.122-4.444,10.153c1.577,4.031,6.119,6.022,10.152,4.445  c4.721-1.846,9.713-2.783,14.84-2.783h37.587c22.325,0,40.489,18.016,40.489,40.162c0,8.11-2.488,15.945-7.003,22.539  c-16.411-7.548-33.979-11.376-52.28-11.376c-9.708,0-19.158,1.11-28.229,3.199c-4.811-3.048-8.009-8.341-8.009-14.363  c0-9.429,7.826-17.101,17.446-17.101h37.587c9.618,0,17.444,7.672,17.444,17.101c0,4.329,3.508,7.837,7.837,7.837  c4.329,0,7.837-3.508,7.837-7.837c0-18.072-14.856-32.774-33.117-32.774H251.75c-18.263,0-33.119,14.703-33.119,32.774  c0,7.352,2.47,14.137,6.618,19.61c-2.358,0.916-4.679,1.908-6.965,2.96c-4.528-6.601-7.024-14.447-7.024-22.57  c0-9.113,2.998-17.7,8.668-24.837c2.693-3.389,2.13-8.318-1.26-11.011c-3.389-2.691-8.318-2.128-11.011,1.26  c-7.897,9.938-12.072,21.898-12.072,34.588c0,10.751,3.139,21.146,8.856,30.03c-34.697,21.647-57.781,59.791-57.781,103.151v9.212  c-19.632,3.083-34.693,20.023-34.693,40.401v27.234c0,14.31,7.434,26.914,18.657,34.225v25.083  c-0.485,0.364-7.628,7.377-7.628,7.377c-2.479,2.462-3.844,5.744-3.844,9.243s1.366,6.78,3.843,9.242l3.233,3.211L108.9,371.457  c-2.479,2.461-3.843,5.744-3.843,9.243c0,3.498,1.365,6.78,3.843,9.242l20.333,20.196c2.464,2.446,5.742,3.794,9.229,3.794  s6.765-1.348,9.23-3.795l20.337-20.196c2.479-2.463,3.843-5.745,3.843-9.243c-0.001-3.498-1.366-6.779-3.843-9.24l-17.332-17.215  l3.232-3.209c2.478-2.462,3.844-5.744,3.844-9.243s-1.366-6.78-3.843-9.242c0,0-7.145-7.014-7.63-7.378v-18.981  c1.04,0.173,2.089,0.318,3.152,0.411c4.813,20.52,15.918,40.033,32.44,56.521c13.353,13.325,29.156,23.57,45.633,29.872v13.661  c-43.443,11.07-76.768,45.658-85.773,89.706c-0.788,3.853,0.186,7.809,2.668,10.846c2.484,3.047,6.163,4.794,10.096,4.794h232.2  c3.933,0,7.612-1.747,10.092-4.79c2.485-3.043,3.459-6.997,2.672-10.849C394.489,471.943,382.105,450.193,363.666,433.462z   M418.975,380.699l-16.626,16.514l-16.625-16.514l16.625-16.516L418.975,380.699z M399.819,341.79l2.53-2.512l2.529,2.512  l-2.529,2.512L399.819,341.79z M394.499,283.371l-0.055-69.188c10.993,2.791,19.145,12.691,19.145,24.446v27.234  c0,5.732-1.952,11.015-5.214,15.256c-1.437-1.727-3.603-2.829-6.027-2.829c-4.329,0-7.837,3.508-7.837,7.837  C394.512,286.128,394.499,285.702,394.499,283.371z M155.092,380.699l-16.629,16.514l-16.626-16.514l16.626-16.516L155.092,380.699z   M135.934,341.79l2.529-2.512l2.53,2.512l-2.53,2.512L135.934,341.79z M146.3,286.128c0-4.329-3.509-7.837-7.837-7.837  c-2.3,0-4.36,0.996-5.794,2.574c-3.146-4.197-5.025-9.381-5.025-15v-27.234c0-11.709,8.09-21.578,19.019-24.413v16.71  c0,0.345,0.027,0.684,0.072,1.021v51.424C146.734,285.704,146.3,286.128,146.3,286.128z M270.945,450.605  c-3.039,0-5.511-2.476-5.511-5.521c0-3.044,2.472-5.519,5.511-5.519s5.51,2.475,5.51,5.519  C276.455,448.128,273.984,450.605,270.945,450.605z M162.335,189.017c0-58.638,48.542-106.343,108.208-106.343  c15.548,0,30.483,3.148,44.467,9.365v36.941c0,58.638-48.542,106.343-108.209,106.343c-15.547,0-30.482-3.148-44.465-9.365v-36.941  H162.335z M162.407,283.371v-40.453c14.11,5.357,28.991,8.077,44.392,8.077c38.169,0,72.346-17.102,95.087-43.922  c19.608,12.831,43.103,20.337,68.357,20.337c2.848,0,5.716-0.101,8.582-0.297v56.258c0,23.28-10.45,46.845-29.426,66.353  c-4.038,4.15-8.383,8.022-12.943,11.561c-14.921,11.584-32.129,19.614-48.281,22.244c-4.272,0.696-7.17,4.723-6.474,8.994  c0.696,4.272,4.72,7.17,8.994,6.474c2.439-0.397,4.888-0.92,7.336-1.508v15.263l-18.106,13.164  c-2.731-1.285-5.769-2.026-8.982-2.026s-6.25,0.741-8.981,2.026l-18.765-13.644v-14.536c4.39,0.98,8.788,1.677,13.162,2.06  c0.233,0.021,0.463,0.029,0.693,0.029c4.02,0,7.441-3.074,7.798-7.154c0.376-4.311-2.812-8.113-7.124-8.49  C212.732,380.246,162.407,336.297,162.407,283.371z M157.81,496.327c0.863-3.626,1.926-7.167,3.162-10.623  c14.139-6.919,30.441-10.568,47.352-10.568c21.329,0,41.905,5.91,57.933,16.641c1.319,0.883,2.839,1.325,4.359,1.325  s3.041-0.442,4.359-1.325c16.031-10.731,36.605-16.641,57.933-16.641c16.919,0,33.23,3.652,47.371,10.579  c1.232,3.459,2.284,6.999,3.143,10.613H157.81z" fill="#000000" data-original="#000000" style="" class=""/>
<g xmlns="http://www.w3.org/2000/svg">
</g>
<g xmlns="http://www.w3.org/2000/svg">
</g>
<g xmlns="http://www.w3.org/2000/svg">
</g>
<g xmlns="http://www.w3.org/2000/svg">
</g>
<g xmlns="http://www.w3.org/2000/svg">
</g>
<g xmlns="http://www.w3.org/2000/svg">
</g>
<g xmlns="http://www.w3.org/2000/svg">
</g>
<g xmlns="http://www.w3.org/2000/svg">
</g>
<g xmlns="http://www.w3.org/2000/svg">
</g>
<g xmlns="http://www.w3.org/2000/svg">
</g>
<g xmlns="http://www.w3.org/2000/svg">
</g>
<g xmlns="http://www.w3.org/2000/svg">
</g>
<g xmlns="http://www.w3.org/2000/svg">
</g>
<g xmlns="http://www.w3.org/2000/svg">
</g>
<g xmlns="http://www.w3.org/2000/svg">
</g>
</g></svg>
